<svg width="869" height="115" viewBox="0 0 869 115" fill="none" xmlns="http://www.w3.org/2000/svg">
<path d="M122.015 105.592V34.0043H127.698L128.296 45.0408H128.744C131.935 41.3619 135.474 38.3294 139.362 35.9431C143.35 33.4574 147.337 32.2146 151.325 32.2146C157.107 32.2146 161.544 33.5569 164.634 36.2414C167.725 38.926 169.918 42.4556 171.214 46.8305C175.301 42.3562 179.339 38.8265 183.327 36.2414C187.414 33.5569 191.502 32.2146 195.589 32.2146C209.945 32.2146 217.123 41.3619 217.123 59.6566V105.592H210.394V60.5515C210.394 45.6373 205.06 38.1803 194.393 38.1803C188.012 38.1803 180.835 42.6545 172.859 51.603V105.592H166.279V60.5515C166.279 52.8956 164.983 47.2779 162.391 43.6985C159.799 40.0197 155.712 38.1803 150.129 38.1803C143.748 38.1803 136.57 42.6545 128.595 51.603V105.592H122.015Z" fill="white"/>
<path d="M259.372 107.382C253.291 107.382 247.708 105.891 242.623 102.908C237.639 99.9249 233.651 95.6495 230.66 90.0815C227.669 84.4142 226.174 77.7028 226.174 69.9474C226.174 62.0926 227.669 55.3813 230.66 49.8133C233.651 44.1459 237.539 39.8208 242.324 36.838C247.11 33.7557 252.144 32.2146 257.428 32.2146C266.002 32.2146 272.731 35.098 277.616 40.8648C282.501 46.6316 284.943 54.7847 284.943 65.324C284.943 66.2189 284.894 67.1137 284.794 68.0086C284.794 68.9034 284.694 69.7983 284.495 70.6931H232.903C233.003 76.6588 234.149 81.9782 236.343 86.6513C238.636 91.3244 241.776 95.0032 245.764 97.6878C249.851 100.372 254.587 101.715 259.97 101.715C263.858 101.715 267.347 101.118 270.438 99.9249C273.628 98.7318 276.569 97.1906 279.261 95.3015L281.953 100.372C279.161 102.063 276.021 103.653 272.532 105.145C269.042 106.636 264.656 107.382 259.372 107.382ZM232.903 65.324H278.663C278.663 56.1767 276.769 49.3162 272.98 44.7425C269.192 40.1688 264.058 37.882 257.577 37.882C253.49 37.882 249.652 38.9757 246.063 41.1631C242.574 43.3505 239.633 46.4825 237.24 50.559C234.847 54.6355 233.402 59.5572 232.903 65.324Z" fill="white"/>
<path d="M313.864 107.382C306.487 107.382 301.004 105.145 297.415 100.671C293.926 96.0969 292.181 89.1867 292.181 79.9399V34.0043H298.761V79.0451C298.761 86.6016 300.007 92.2192 302.499 95.8981C305.091 99.5769 309.279 101.416 315.061 101.416C319.348 101.416 323.236 100.273 326.725 97.986C330.214 95.5998 334.053 91.8712 338.24 86.8004V34.0043H344.819V105.592H339.286L338.539 93.6609H338.24C334.75 97.7375 331.062 101.068 327.174 103.653C323.286 106.139 318.849 107.382 313.864 107.382Z" fill="white"/>
<path d="M391.352 107.382C386.367 107.382 381.383 106.437 376.398 104.548C371.413 102.56 367.126 100.124 363.537 97.2403L371.613 86.2039C374.902 88.6896 378.192 90.6781 381.482 92.1695C384.772 93.6609 388.261 94.4066 391.95 94.4066C395.938 94.4066 398.879 93.5615 400.773 91.8712C402.667 90.181 403.614 88.093 403.614 85.6073C403.614 83.5193 402.817 81.829 401.222 80.5365C399.726 79.1445 397.782 77.9514 395.39 76.9571C392.997 75.8634 390.505 74.8194 387.913 73.8251C384.722 72.632 381.532 71.1903 378.342 69.5C375.251 67.7103 372.709 65.4732 370.715 62.7886C368.721 60.0046 367.724 56.5744 367.724 52.4978C367.724 46.035 370.117 40.7654 374.902 36.6888C379.688 32.6123 386.168 30.574 394.343 30.574C399.527 30.574 404.163 31.4689 408.25 33.2586C412.338 35.0483 415.877 37.0866 418.868 39.3734L410.942 49.8133C408.35 47.9242 405.708 46.4328 403.016 45.3391C400.424 44.1459 397.683 43.5494 394.791 43.5494C391.103 43.5494 388.361 44.3448 386.567 45.9356C384.772 47.427 383.875 49.3162 383.875 51.603C383.875 54.4864 385.37 56.6738 388.361 58.1652C391.352 59.6567 394.841 61.0983 398.829 62.4903C402.219 63.6835 405.509 65.1749 408.699 66.9646C411.889 68.6549 414.531 70.892 416.624 73.676C418.818 76.4599 419.914 80.1388 419.914 84.7124C419.914 90.9764 417.472 96.3455 412.587 100.82C407.702 105.195 400.624 107.382 391.352 107.382Z" fill="white"/>
<path d="M445.585 107.382C439.205 107.382 433.971 105.393 429.883 101.416C425.896 97.4392 423.902 92.269 423.902 85.9056C423.902 78.0508 427.341 71.9857 434.22 67.7103C441.099 63.3355 452.065 60.3526 467.119 58.7618C467.019 54.8841 465.973 51.5533 463.979 48.7693C462.084 45.8859 458.645 44.4442 453.66 44.4442C450.071 44.4442 446.532 45.1402 443.043 46.5322C439.653 47.9242 436.314 49.6144 433.024 51.603L426.743 40.1191C430.83 37.534 435.416 35.2968 440.501 33.4077C445.685 31.5186 451.168 30.574 456.95 30.574C466.122 30.574 472.951 33.3083 477.437 38.7768C482.023 44.1459 484.316 51.951 484.316 62.1921V105.592H470.11L468.914 97.5386H468.315C465.025 100.323 461.486 102.659 457.698 104.548C454.009 106.437 449.972 107.382 445.585 107.382ZM451.118 93.9592C454.109 93.9592 456.801 93.2632 459.193 91.8712C461.686 90.3798 464.328 88.3913 467.119 85.9056V69.5C457.15 70.7926 450.221 72.7314 446.333 75.3165C442.445 77.8022 440.501 80.8845 440.501 84.5633C440.501 87.8444 441.498 90.2307 443.492 91.7221C445.485 93.2135 448.028 93.9592 451.118 93.9592Z" fill="white"/>
<path d="M497.42 105.592V32.3637H511.626L512.822 42.2071H513.421C516.711 39.0254 520.3 36.2911 524.188 34.0043C528.076 31.7174 532.512 30.574 537.497 30.574C545.373 30.574 551.105 33.1094 554.694 38.1803C558.283 43.2511 560.077 50.4099 560.077 59.6566V105.592H542.88V61.8938C542.88 55.8287 541.983 51.5533 540.189 49.0676C538.394 46.5819 535.453 45.3391 531.366 45.3391C528.175 45.3391 525.334 46.1345 522.842 47.7253C520.449 49.2167 517.708 51.4539 514.617 54.4367V105.592H497.42Z" fill="white"/>
<path d="M599.492 107.382C591.018 107.382 584.987 104.946 581.398 100.074C577.908 95.1026 576.164 88.6896 576.164 80.8348V45.9356H565.696V33.1094L577.061 32.3637L579.154 12.3788H593.51V32.3637H612.203V45.9356H593.51V80.8348C593.51 89.3855 596.95 93.6609 603.829 93.6609C605.125 93.6609 606.471 93.5118 607.866 93.2135C609.262 92.8158 610.458 92.4181 611.455 92.0204L614.446 104.697C612.452 105.393 610.159 105.99 607.567 106.487C605.075 107.084 602.383 107.382 599.492 107.382Z" fill="white"/>
<path d="M620.178 105.592V32.3637H637.375V105.592H620.178ZM628.851 19.5376C625.761 19.5376 623.268 18.6427 621.374 16.853C619.48 15.0633 618.533 12.677 618.533 9.6942C618.533 6.8108 619.48 4.47424 621.374 2.68454C623.268 0.894847 625.761 0 628.851 0C631.942 0 634.434 0.894847 636.328 2.68454C638.222 4.47424 639.17 6.8108 639.17 9.6942C639.17 12.677 638.222 15.0633 636.328 16.853C634.434 18.6427 631.942 19.5376 628.851 19.5376Z" fill="white"/>
<path d="M651.838 105.592V32.3637H666.045L667.241 42.2071H667.839C671.129 39.0254 674.718 36.2911 678.606 34.0043C682.494 31.7174 686.931 30.574 691.915 30.574C699.791 30.574 705.524 33.1094 709.113 38.1803C712.702 43.2511 714.496 50.4099 714.496 59.6566V105.592H697.299V61.8938C697.299 55.8287 696.402 51.5533 694.607 49.0676C692.813 46.5819 689.872 45.3391 685.784 45.3391C682.594 45.3391 679.753 46.1345 677.26 47.7253C674.868 49.2167 672.126 51.4539 669.036 54.4367V105.592H651.838Z" fill="white"/>
<path d="M728.04 105.592V0.298279H745.237V27.4421L744.639 41.6105C747.73 38.7271 751.169 36.1917 754.957 34.0043C758.746 31.7174 763.132 30.574 768.117 30.574C775.993 30.574 781.725 33.1094 785.314 38.1803C788.903 43.2511 790.698 50.4099 790.698 59.6566V105.592H773.501V61.8938C773.501 55.8287 772.603 51.5533 770.809 49.0676C769.014 46.5819 766.073 45.3391 761.986 45.3391C758.796 45.3391 755.954 46.1345 753.462 47.7253C751.069 49.2167 748.328 51.4539 745.237 54.4367V105.592H728.04Z" fill="white"/>
<path d="M834.007 107.382C827.926 107.382 822.244 105.891 816.96 102.908C811.676 99.8255 807.389 95.4506 804.099 89.7833C800.809 84.0165 799.164 77.1062 799.164 69.0526C799.164 60.8995 800.809 53.9893 804.099 48.3219C807.389 42.5551 811.676 38.1803 816.96 35.1974C822.244 32.1152 827.926 30.574 834.007 30.574C840.188 30.574 845.921 32.1152 851.205 35.1974C856.488 38.1803 860.775 42.5551 864.065 48.3219C867.355 53.9893 869 60.8995 869 69.0526C869 77.1062 867.355 84.0165 864.065 89.7833C860.775 95.4506 856.488 99.8255 851.205 102.908C845.921 105.891 840.188 107.382 834.007 107.382ZM834.007 93.3627C839.391 93.3627 843.628 91.1255 846.718 86.6513C849.809 82.177 851.354 76.3108 851.354 69.0526C851.354 61.6949 849.809 55.779 846.718 51.3047C843.628 46.8305 839.391 44.5933 834.007 44.5933C828.624 44.5933 824.387 46.8305 821.296 51.3047C818.306 55.779 816.81 61.6949 816.81 69.0526C816.81 76.3108 818.306 82.177 821.296 86.6513C824.387 91.1255 828.624 93.3627 834.007 93.3627Z" fill="white"/>
<path d="M0 41.7966C0 39.5129 1.85623 37.6617 4.146 37.6617H73.3994C75.6892 37.6617 77.5455 39.5129 77.5455 41.7966V110.865C77.5455 113.149 75.6892 115 73.3995 115H4.14601C1.85623 115 0 113.149 0 110.865V41.7966Z" fill="#704FCC"/>
<path d="M4.88066 36.7182C4.88066 34.4346 6.73689 32.5833 9.02666 32.5833H78.2801C80.5699 32.5833 82.4261 34.4346 82.4261 36.7182V105.787C82.4261 108.07 80.5699 109.922 78.2801 109.922H9.02667C6.73689 109.922 4.88066 108.07 4.88066 105.787V36.7182Z" fill="#CDEEFF"/>
<path d="M9.76132 31.6399C9.76132 29.3562 11.6175 27.505 13.9073 27.505H83.1608C85.4505 27.505 87.3068 29.3562 87.3068 31.6399V100.708C87.3068 102.992 85.4505 104.843 83.1608 104.843H13.9073C11.6176 104.843 9.76132 102.992 9.76132 100.708V31.6399Z" fill="#9C8CFF"/>
<path d="M14.642 26.5616C14.642 24.278 16.4982 22.4267 18.788 22.4267H88.0414C90.3312 22.4267 92.1874 24.278 92.1874 26.5616V95.6301C92.1874 97.9138 90.3312 99.765 88.0414 99.765H18.788C16.4982 99.765 14.642 97.9138 14.642 95.6301V26.5616Z" fill="#BFD1FF"/>
<path d="M19.5226 21.4833C19.5226 19.1996 21.3789 17.3484 23.6686 17.3484H92.9221C95.2119 17.3484 97.0681 19.1996 97.0681 21.4833V90.5518C97.0681 92.8354 95.2119 94.6867 92.9221 94.6867H23.6686C21.3789 94.6867 19.5226 92.8354 19.5226 90.5518V21.4833Z" fill="#8E7BFF"/>
<path d="M92.1874 94.6867H23.6686C21.3789 94.6867 19.5226 92.8354 19.5226 90.5518V22.4267H88.0414C90.3312 22.4267 92.1874 24.278 92.1874 26.5616V94.6867Z" fill="#BFD1FF"/>
<path fill-rule="evenodd" clip-rule="evenodd" d="M58.2953 38.799C54.9888 38.799 52.3084 41.4723 52.3084 44.77C52.3084 48.0677 54.9888 50.7409 58.2953 50.7409C61.6018 50.7409 64.2823 48.0677 64.2823 44.77C64.2823 41.4723 61.6018 38.799 58.2953 38.799ZM46.4606 44.77C46.4606 38.2513 51.7592 32.9669 58.2953 32.9669C64.8314 32.9669 70.13 38.2513 70.13 44.77C70.13 51.2886 64.8314 56.5731 58.2953 56.5731C51.7592 56.5731 46.4606 51.2886 46.4606 44.77ZM41.0161 63.3627C43.2355 61.1492 46.2457 59.9057 49.3845 59.9057H67.2061C70.3449 59.9057 73.3551 61.1492 75.5745 63.3627C77.794 65.5762 79.0408 68.5784 79.0408 71.7088V76.1523C79.0408 77.7628 77.7318 79.0683 76.117 79.0683C74.5022 79.0683 73.1931 77.7628 73.1931 76.1523V71.7088C73.1931 70.1252 72.5623 68.6064 71.4396 67.4867C70.3168 66.3669 68.794 65.7378 67.2061 65.7378H49.3845C47.7967 65.7378 46.2739 66.3669 45.1511 67.4867C44.0283 68.6064 43.3975 70.1252 43.3975 71.7088V76.1523C43.3975 77.7628 42.0885 79.0683 40.4737 79.0683C38.8589 79.0683 37.5498 77.7628 37.5498 76.1523V71.7088C37.5498 68.5784 38.7967 65.5762 41.0161 63.3627Z" fill="#BFD1FF"/>
</svg>
